<svg width="144" height="52" viewBox="0 0 144 52" fill="none" xmlns="http://www.w3.org/2000/svg">
<path d="M25.7861 7.8291L24.2715 9.04297C23.8704 8.6276 23.5052 8.31966 23.1758 8.11914C22.8535 7.91146 22.3844 7.80762 21.7686 7.80762C21.0954 7.80762 20.5475 7.96159 20.125 8.26953C19.7096 8.57031 19.502 8.96061 19.502 9.44043C19.502 9.85579 19.6846 10.2246 20.0498 10.5469C20.415 10.862 21.0381 11.2093 21.9189 11.5889C22.7998 11.9613 23.4837 12.3122 23.9707 12.6416C24.4648 12.9639 24.8695 13.3219 25.1846 13.7158C25.4997 14.1097 25.7324 14.5251 25.8828 14.9619C26.0404 15.3988 26.1191 15.8607 26.1191 16.3477C26.1191 17.4863 25.7038 18.4567 24.873 19.2588C24.0495 20.0609 23.0505 20.4619 21.876 20.4619C20.7301 20.4619 19.7168 20.1504 18.8359 19.5273C17.9622 18.8971 17.2891 17.9554 16.8164 16.7021L18.6855 16.1758C19.3659 17.7155 20.4079 18.4854 21.8115 18.4854C22.4919 18.4854 23.0576 18.2812 23.5088 17.873C23.96 17.4648 24.1855 16.9492 24.1855 16.3262C24.1855 15.9538 24.0674 15.5814 23.8311 15.209C23.5947 14.8294 23.3011 14.5179 22.9502 14.2744C22.5993 14.0309 22.0371 13.7552 21.2637 13.4473C20.4974 13.1322 19.9066 12.8457 19.4912 12.5879C19.083 12.3229 18.7285 12.0114 18.4277 11.6533C18.127 11.2881 17.9049 10.9264 17.7617 10.5684C17.6257 10.2103 17.5576 9.82715 17.5576 9.41895C17.5576 8.43783 17.9515 7.60352 18.7393 6.91602C19.527 6.22135 20.4831 5.87402 21.6074 5.87402C22.3522 5.87402 23.1077 6.03516 23.874 6.35742C24.6403 6.67969 25.2777 7.17025 25.7861 7.8291ZM29.7973 6.31445H31.6449V18.1523H36.1029V20H29.7973V6.31445ZM38.3094 13.0713C38.3094 11.0947 39.0542 9.40104 40.5438 7.99023C42.0333 6.57943 43.8237 5.87402 45.9148 5.87402C47.9559 5.87402 49.714 6.58659 51.1893 8.01172C52.6645 9.42969 53.4021 11.1162 53.4021 13.0713C53.4021 15.141 52.6717 16.8919 51.2107 18.3242C49.757 19.7493 47.9702 20.4619 45.8504 20.4619C43.7592 20.4619 41.9796 19.7422 40.5115 18.3027C39.0434 16.8633 38.3094 15.1195 38.3094 13.0713ZM51.4148 13.1572C51.4148 11.6462 50.8706 10.375 49.782 9.34375C48.6935 8.30534 47.3543 7.78613 45.7645 7.78613C44.2534 7.78613 42.9572 8.3125 41.8758 9.36523C40.8016 10.418 40.2645 11.682 40.2645 13.1572C40.2645 14.654 40.8159 15.9215 41.9188 16.96C43.0288 17.9912 44.3859 18.5068 45.99 18.5068C47.4653 18.5068 48.7365 17.9805 49.8035 16.9277C50.8777 15.8678 51.4148 14.611 51.4148 13.1572ZM66.05 5.78809L70.4543 15.8857L74.59 6.33594H76.5236L70.4543 20.4189L66.05 10.2998L61.6457 20.4189L55.5764 6.33594H57.51L61.6672 15.9717L66.05 5.78809ZM78.5797 13.0713C78.5797 11.0947 79.3245 9.40104 80.8141 7.99023C82.3036 6.57943 84.094 5.87402 86.1852 5.87402C88.2262 5.87402 89.9843 6.58659 91.4596 8.01172C92.9348 9.42969 93.6725 11.1162 93.6725 13.0713C93.6725 15.141 92.942 16.8919 91.4811 18.3242C90.0273 19.7493 88.2405 20.4619 86.1207 20.4619C84.0296 20.4619 82.2499 19.7422 80.7818 18.3027C79.3137 16.8633 78.5797 15.1195 78.5797 13.0713ZM91.6852 13.1572C91.6852 11.6462 91.1409 10.375 90.0523 9.34375C88.9638 8.30534 87.6246 7.78613 86.0348 7.78613C84.5237 7.78613 83.2275 8.3125 82.1461 9.36523C81.0719 10.418 80.5348 11.682 80.5348 13.1572C80.5348 14.654 81.0862 15.9215 82.1891 16.96C83.2991 17.9912 84.6562 18.5068 86.2604 18.5068C87.7356 18.5068 89.0068 17.9805 90.0738 16.9277C91.148 15.8678 91.6852 14.611 91.6852 13.1572ZM96.6523 13.0713C96.6523 11.0947 97.3971 9.40104 98.8867 7.99023C100.376 6.57943 102.167 5.87402 104.258 5.87402C106.299 5.87402 108.057 6.58659 109.532 8.01172C111.007 9.42969 111.745 11.1162 111.745 13.0713C111.745 15.141 111.015 16.8919 109.554 18.3242C108.1 19.7493 106.313 20.4619 104.193 20.4619C102.102 20.4619 100.323 19.7422 98.8545 18.3027C97.3864 16.8633 96.6523 15.1195 96.6523 13.0713ZM109.758 13.1572C109.758 11.6462 109.214 10.375 108.125 9.34375C107.036 8.30534 105.697 7.78613 104.107 7.78613C102.596 7.78613 101.3 8.3125 100.219 9.36523C99.1445 10.418 98.6074 11.682 98.6074 13.1572C98.6074 14.654 99.1589 15.9215 100.262 16.96C101.372 17.9912 102.729 18.5068 104.333 18.5068C105.808 18.5068 107.079 17.9805 108.146 16.9277C109.221 15.8678 109.758 14.611 109.758 13.1572ZM115.316 6.31445H118.635C121.263 6.31445 123.218 7.00911 124.5 8.39844C125.782 9.78776 126.423 11.374 126.423 13.1572C126.423 14.9548 125.761 16.5446 124.436 17.9268C123.111 19.3089 121.185 20 118.657 20H115.316V6.31445ZM117.185 8.14062V18.1523H117.292C118.682 18.1523 119.727 18.0915 120.429 17.9697C121.131 17.8408 121.797 17.5651 122.427 17.1426C123.057 16.7201 123.559 16.1615 123.931 15.4668C124.303 14.765 124.49 13.9951 124.49 13.1572C124.49 12.1045 124.192 11.152 123.598 10.2998C123.004 9.44759 122.291 8.87467 121.46 8.58105C120.637 8.28743 119.527 8.14062 118.13 8.14062H117.185ZM25.7861 33.8291L24.2715 35.043C23.8704 34.6276 23.5052 34.3197 23.1758 34.1191C22.8535 33.9115 22.3844 33.8076 21.7686 33.8076C21.0954 33.8076 20.5475 33.9616 20.125 34.2695C19.7096 34.5703 19.502 34.9606 19.502 35.4404C19.502 35.8558 19.6846 36.2246 20.0498 36.5469C20.415 36.862 21.0381 37.2093 21.9189 37.5889C22.7998 37.9613 23.4837 38.3122 23.9707 38.6416C24.4648 38.9639 24.8695 39.3219 25.1846 39.7158C25.4997 40.1097 25.7324 40.5251 25.8828 40.9619C26.0404 41.3988 26.1191 41.8607 26.1191 42.3477C26.1191 43.4863 25.7038 44.4567 24.873 45.2588C24.0495 46.0609 23.0505 46.4619 21.876 46.4619C20.7301 46.4619 19.7168 46.1504 18.8359 45.5273C17.9622 44.8971 17.2891 43.9554 16.8164 42.7021L18.6855 42.1758C19.3659 43.7155 20.4079 44.4854 21.8115 44.4854C22.4919 44.4854 23.0576 44.2812 23.5088 43.873C23.96 43.4648 24.1855 42.9492 24.1855 42.3262C24.1855 41.9538 24.0674 41.5814 23.8311 41.209C23.5947 40.8294 23.3011 40.5179 22.9502 40.2744C22.5993 40.0309 22.0371 39.7552 21.2637 39.4473C20.4974 39.1322 19.9066 38.8457 19.4912 38.5879C19.083 38.3229 18.7285 38.0114 18.4277 37.6533C18.127 37.2881 17.9049 36.9264 17.7617 36.5684C17.6257 36.2103 17.5576 35.8271 17.5576 35.4189C17.5576 34.4378 17.9515 33.6035 18.7393 32.916C19.527 32.2214 20.4831 31.874 21.6074 31.874C22.3522 31.874 23.1077 32.0352 23.874 32.3574C24.6403 32.6797 25.2777 33.1702 25.7861 33.8291ZM28.6908 32.3145H37.059V34.1836H33.7934V46H31.9457V34.1836H28.6908V32.3145ZM40.2107 32.3359H42.0799V40.7471C42.0799 41.9932 42.3771 42.9564 42.9715 43.6367C43.573 44.3171 44.4217 44.6572 45.5174 44.6572C46.6059 44.6572 47.451 44.3457 48.0525 43.7227C48.6613 43.0924 48.9656 42.208 48.9656 41.0693V32.3359H50.8348V40.9404C50.8348 42.6162 50.3549 43.9554 49.3953 44.958C48.4428 45.9606 47.1717 46.4619 45.5818 46.4619C43.9562 46.4619 42.6528 45.9535 41.6717 44.9365C40.6977 43.9196 40.2107 42.4193 40.2107 40.4355V32.3359ZM54.6955 32.3145H58.0148C60.6431 32.3145 62.5982 33.0091 63.8801 34.3984C65.162 35.7878 65.8029 37.374 65.8029 39.1572C65.8029 40.9548 65.1405 42.5446 63.8156 43.9268C62.4908 45.3089 60.5643 46 58.0363 46H54.6955V32.3145ZM56.5646 34.1406V44.1523H56.6721C58.0614 44.1523 59.107 44.0915 59.8088 43.9697C60.5106 43.8408 61.1766 43.5651 61.8068 43.1426C62.437 42.7201 62.9383 42.1615 63.3107 41.4668C63.6831 40.765 63.8693 39.9951 63.8693 39.1572C63.8693 38.1045 63.5721 37.152 62.9777 36.2998C62.3833 35.4476 61.6708 34.8747 60.84 34.5811C60.0165 34.2874 58.9064 34.1406 57.51 34.1406H56.5646ZM69.0514 32.3145H70.899V46H69.0514V32.3145ZM74.4375 39.0713C74.4375 37.0947 75.1823 35.401 76.6719 33.9902C78.1615 32.5794 79.9518 31.874 82.043 31.874C84.084 31.874 85.8421 32.5866 87.3174 34.0117C88.7926 35.4297 89.5303 37.1162 89.5303 39.0713C89.5303 41.141 88.7998 42.8919 87.3389 44.3242C85.8851 45.7493 84.0983 46.4619 81.9785 46.4619C79.8874 46.4619 78.1077 45.7422 76.6396 44.3027C75.1715 42.8633 74.4375 41.1195 74.4375 39.0713ZM87.543 39.1572C87.543 37.6462 86.9987 36.375 85.9102 35.3438C84.8216 34.3053 83.4824 33.7861 81.8926 33.7861C80.3815 33.7861 79.0853 34.3125 78.0039 35.3652C76.9297 36.418 76.3926 37.682 76.3926 39.1572C76.3926 40.654 76.944 41.9215 78.0469 42.96C79.1569 43.9912 80.514 44.5068 82.1182 44.5068C83.5934 44.5068 84.8646 43.9805 85.9316 42.9277C87.0059 41.8678 87.543 40.611 87.543 39.1572Z" fill="black"/>
<rect y="9" width="10" height="2" fill="black"/>
<rect y="41" width="10" height="2" fill="black"/>
<rect y="43" width="34" height="2" transform="rotate(-90 0 43)" fill="black"/>
<rect x="144" y="43" width="47" height="2" transform="rotate(-180 144 43)" fill="black"/>
<rect x="144" y="11" width="10" height="2" transform="rotate(-180 144 11)" fill="black"/>
<rect x="144" y="9" width="34" height="2" transform="rotate(90 144 9)" fill="black"/>
</svg>
